:FULLY-SPECIFIED
:FORCE-ALL-JOINTS-BE-3DOF
:DEGREES
1121
root 0.913765 14.4975 -28.1191 3.85381 -1.69161 2.98072
lfemur -34.9499 12.6959 -23.8382
ltibia 71.6838 -0 0
lfoot -24.332 27.8807 -0.104595
ltoes -14.1313 0 0
rfemur -44.6385 -12.0286 14.0794
rtibia 92.1697 -0 0
rfoot -6.70027 -3.80991 0.297469
rtoes -12.5528 0 0
lowerback 14.2696 1.043 -9.38872
upperback -0.863722 -0.0842299 1.47072
thorax -8.98276 0.453291 6.99889
lowerneck -5.49249 -0.905819 -3.32092
upperneck 3.95766 -1.13703 3.79258
head 2.5515 -0.565912 1.5733
lclavicle 5.71257e-14 1.35174e-14 0
lhumerus 48.0527 -25.1444 52.4156
lradius 87.5353 -0 0
lwrist 35.9076 0 0
lhand -29.4287 31.1487 -1.15636
lfingers 7.12502 -0 0
lthumb -2.76906 60.8488 -1.13314
rclavicle 5.71257e-14 1.35174e-14 0
rhumerus -19.537 28.6937 -78.0472
rradius 87.6804 -0 0
rwrist -33.3981 0 0
rhand -24.1056 -47.9003 -0.268946
rfingers 7.12502 -0 0
rthumb 2.37663 -77.6896 -0.268823
1122
root 0.881864 14.4935 -27.9232 3.47969 -0.419747 3.16635
lfemur -33.2397 12.5076 -23.3389
ltibia 71.0169 -0 0
lfoot -24.5732 28.167 -0.113774
ltoes -14.1607 0 0
rfemur -44.7639 -12.0594 13.6069
rtibia 90.6454 -0 0
rfoot -6.25426 -3.3699 0.323604
rtoes -12.1433 0 0
lowerback 14.213 1.15607 -9.46806
upperback -0.82445 0.0501436 1.34601
thorax -8.93188 0.514099 6.87861
lowerneck -5.33275 -1.39952 -3.73782
upperneck 4.1642 -1.7955 4.16027
head 2.64894 -0.895339 1.71745
lclavicle 5.71257e-14 1.35174e-14 0
lhumerus 43.3644 -26.8386 54.3982
lradius 88.369 -0 0
lwrist 36.6427 0 0
lhand -28.6078 30.2204 -1.25852
lfingers 7.12502 -0 0
lthumb -1.97679 59.9063 -1.23325
rclavicle 5.71257e-14 1.35174e-14 0
rhumerus -15.1866 28.7506 -75.0234
rradius 87.8018 -0 0
rwrist -31.2853 0 0
rhand -24.7837 -47.6387 -0.292591
rfingers 7.12502 -0 0
rthumb 1.72197 -77.4187 -0.292455
1123
root 0.849964 14.4894 -27.7272 3.09676 0.897904 3.34976
lfemur -31.4728 12.2975 -22.8287
ltibia 70.3266 -0 0
lfoot -24.8228 28.4632 -0.122005
ltoes -14.1911 0 0
rfemur -44.8935 -12.0923 13.1179
rtibia 89.0677 -0 0
rfoot -5.79243 -2.91429 0.347047
rtoes -11.7195 0 0
lowerback 14.1542 1.27301 -9.5503
upperback -0.784112 0.189313 1.21704
thorax -8.87936 0.577149 6.75417
lowerneck -5.1636 -1.90927 -4.17087
upperneck 4.37362 -2.47841 4.53849
head 2.74893 -1.23656 1.86608
lclavicle 5.71257e-14 1.35174e-14 0
lhumerus 38.3715 -28.4302 56.6398
lradius 89.2318 -0 0
lwrist 37.4035 0 0
lhand -27.7566 29.2581 -1.35023
lfingers 7.12502 -0 0
lthumb -1.15511 58.9295 -1.32311
rclavicle 5.71257e-14 1.35174e-14 0
rhumerus -10.6887 28.5975 -71.8993
rradius 87.9275 -0 0
rwrist -29.0985 0 0
rhand -25.4857 -47.3676 -0.313802
rfingers 7.12502 -0 0
rthumb 1.04427 -77.1381 -0.313652
1124
root 0.818064 14.4854 -27.5313 2.70703 2.25452 3.52935
lfemur -29.6589 12.0655 -22.3116
ltibia 69.6165 -0 0
lfoot -25.0797 28.768 -0.129125
ltoes -14.2223 0 0
rfemur -45.0265 -12.1273 12.6149
rtibia 87.4448 -0 0
rfoot -5.31719 -2.44545 0.367327
rtoes -11.2836 0 0
lowerback 14.0935 1.39322 -9.63502
upperback -0.742944 0.332562 1.08447
thorax -8.82548 0.642123 6.62623
lowerneck -4.98552 -2.43227 -4.61805
upperneck 4.58444 -3.18229 4.92517
head 2.85087 -1.58782 2.01836
lclavicle 5.71257e-14 1.35174e-14 0
lhumerus 33.0883 -29.878 59.1373
lradius 90.1193 -0 0
lwrist 38.1861 0 0
lhand -26.8795 28.2669 -1.42963
lfingers 7.12502 -0 0
lthumb -0.308411 57.9234 -1.40091
rclavicle 5.71257e-14 1.35174e-14 0
rhumerus -6.09053 28.2169 -68.7181
rradius 88.0568 -0 0
rwrist -26.8491 0 0
rhand -26.2079 -47.0886 -0.332153
rfingers 7.12502 -0 0
rthumb 0.347059 -76.8492 -0.331992
1125
root 0.786163 14.4814 -27.3354 2.31233 3.64327 3.70368
lfemur -27.8076 11.8118 -21.7912
ltibia 68.8902 -0 0
lfoot -25.3424 29.0798 -0.134993
ltoes -14.2543 0 0
rfemur -45.1622 -12.1643 12.1004
rtibia 85.785 -0 0
rfoot -4.83098 -1.96577 0.384046
rtoes -10.8378 0 0
lowerback 14.0313 1.51607 -9.72181
upperback -0.701182 0.479172 0.948985
thorax -8.77052 0.708701 6.49544
lowerneck -4.79908 -2.96572 -5.07729
upperneck 4.7953 -3.90366 5.31828
head 2.95419 -1.94736 2.1735
lclavicle 5.71257e-14 1.35174e-14 0
lhumerus 27.538 -31.1414 61.8773
lradius 91.0271 -0 0
lwrist 38.9865 0 0
lhand -25.9811 27.2519 -1.49513
lfingers 7.12502 -0 0
lthumb 0.55888 56.8932 -1.46508
rclavicle 5.71257e-14 1.35174e-14 0
rhumerus -1.44128 27.5982 -65.5258
rradius 88.189 -0 0
rwrist -24.5485 0 0
rhand -26.9466 -46.803 -0.347282
rfingers 7.12502 -0 0
rthumb -0.366115 -76.5535 -0.347112
1126
root 0.754263 14.4773 -27.1395 1.91441 5.05725 3.8715
lfemur -25.9286 11.5369 -21.2711
ltibia 68.1514 -0 0
lfoot -25.6097 29.397 -0.139496
ltoes -14.2868 0 0
rfemur -45.2999 -12.2031 11.5771
rtibia 84.0965 -0 0
rfoot -4.33622 -1.47765 0.396875
rtoes -10.3843 0 0
lowerback 13.9678 1.64095 -9.81024
upperback -0.65905 0.628421 0.811261
thorax -8.71477 0.776561 6.36244
lowerneck -4.60493 -3.50686 -5.54652
upperneck 5.00492 -4.63898 5.71584
head 3.05832 -2.31341 2.33069
lclavicle 5.71257e-14 1.35174e-14 0
lhumerus 21.7547 -32.1834 64.834
lradius 91.9505 -0 0
lwrist 39.8008 0 0
lhand -25.0661 26.2185 -1.54542
lfingers 7.12502 -0 0
lthumb 1.44225 55.8443 -1.51436
rclavicle 5.71257e-14 1.35174e-14 0
rhumerus 3.21036 26.7381 -62.3679
rradius 88.3235 -0 0
rwrist -22.208 0 0
rhand -27.6982 -46.5122 -0.358893
rfingers 7.12502 -0 0
rthumb -1.09171 -76.2525 -0.358715
1127
root 0.722362 14.4733 -26.9436 1.51487 6.48958 4.03173
lfemur -24.0313 11.2419 -20.7549
ltibia 67.4035 -0 0
lfoot -25.8803 29.7181 -0.142547
ltoes -14.3197 0 0
rfemur -45.4389 -12.2437 11.0474
rtibia 82.3874 -0 0
rfoot -3.83534 -0.983507 0.405568
rtoes -9.92518 0 0
lowerback 13.9033 1.76724 -9.8999
upperback -0.616771 0.779588 0.671969
thorax -8.65849 0.845377 6.22789
lowerneck -4.40377 -4.05294 -6.02362
upperneck 5.2121 -5.38469 6.11593
head 3.16273 -2.68421 2.48916
lclavicle 5.71257e-14 1.35174e-14 0
lhumerus 15.7838 -32.9716 67.9691
lradius 92.8852 -0 0
lwrist 40.625 0 0
lhand -24.1391 25.1717 -1.57951
lfingers 7.12502 -0 0
lthumb 2.33715 54.782 -1.54775
rclavicle 5.71257e-14 1.35174e-14 0
rhumerus 7.8186 25.6408 -59.2876
rradius 88.4597 -0 0
rwrist -19.839 0 0
rhand -28.4589 -46.2178 -0.366761
rfingers 7.12502 -0 0
rthumb -1.82618 -75.9478 -0.366577
1128
root 0.690462 14.4693 -26.7477 1.11527 7.93331 4.18342
lfemur -22.1251 10.928 -20.2458
ltibia 66.6503 -0 0
lfoot -26.1528 30.0415 -0.144087
ltoes -14.3528 0 0
rfemur -45.5786 -12.2858 10.5139
rtibia 80.666 -0 0
rfoot -3.3308 -0.485741 0.409957
rtoes -9.4628 0 0
lowerback 13.8382 1.89435 -9.99035
upperback -0.574557 0.931948 0.531781
thorax -8.60197 0.914823 6.09244
lowerneck -4.19641 -4.60124 -6.50645
upperneck 5.41576 -6.13722 6.5167
head 3.26688 -3.05796 2.64814
lclavicle 5.71257e-14 1.35174e-14 0
lhumerus 9.68216 -33.4812 71.2322
lradius 93.8267 -0 0
lwrist 41.4552 0 0
lhand -23.205 24.117 -1.59672
lfingers 7.12502 -0 0
lthumb 3.23898 53.7117 -1.56462
rclavicle 5.71257e-14 1.35174e-14 0
rhumerus 12.3427 24.3174 -56.3232
rradius 88.5968 -0 0
rwrist -17.453 0 0
rhand -29.2252 -45.9212 -0.370733
rfingers 7.12502 -0 0
rthumb -2.56598 -75.6407 -0.370547
